Coordinates
version=1
nRows=49
nColumns=12
inDegrees=yes

Units are S.I. units (second, meters, Newtons, ...)
Angles are in degrees

endheader
time	SC_y	SC_z	SC_x	AC_y	AC_z	AC_x	GH_y	GH_z	GH_yy	EL_x	PS_y
       0.0              -16.22          13.88          73.06          62.01        -0.4472          11.06         -17.16          8.278         -24.41           71.5          125.1
  0.005291              -16.23          13.88          73.06          62.01        -0.4472          11.06         -17.16          8.283          -24.4           71.5          125.1
   0.01058              -16.23          13.88          73.06          62.01        -0.4472          11.06         -17.16          8.288         -24.39          71.49          125.1
   0.01587              -16.24          13.88          73.06          62.01        -0.4472          11.06         -17.16          8.293         -24.38          71.48          125.1
   0.02116              -16.25          13.88          73.06           62.0        -0.4472          11.06         -17.16          8.298         -24.36          71.47          125.1
   0.02645              -16.25          13.88          73.06           62.0        -0.4471          11.06         -17.16          8.304         -24.35          71.47          125.1
   0.03175              -16.26          13.88          73.06           62.0        -0.4471          11.05         -17.16           8.31         -24.34          71.46          125.0
   0.03704              -16.27          13.88          73.06          61.99        -0.4471          11.05         -17.16          8.316         -24.32          71.45          125.0
   0.04233              -16.28          13.89          73.06          61.99        -0.4471          11.05         -17.16          8.323          -24.3          71.44          125.0
   0.04762              -16.28          13.89          73.06          61.99        -0.4471          11.05         -17.16          8.331         -24.29          71.42          125.0
   0.05291              -16.29          13.89          73.06          61.98         -0.447          11.05         -17.16          8.339         -24.27          71.41          124.9
    0.0582               -16.3          13.89          73.06          61.98         -0.447          11.05         -17.16          8.347         -24.25           71.4          124.9
   0.06349              -16.31          13.89          73.06          61.97         -0.447          11.04         -17.16          8.356         -24.23          71.38          124.9
   0.06878              -16.33           13.9          73.06          61.97         -0.447          11.04         -17.17          8.366          -24.2          71.37          124.9
   0.07407              -16.34           13.9          73.06          61.96        -0.4469          11.04         -17.17          8.377         -24.18          71.35          124.8
   0.07936              -16.35           13.9          73.06          61.96        -0.4469          11.04         -17.17          8.389         -24.15          71.33          124.8
   0.08466              -16.37           13.9          73.07          61.95        -0.4468          11.03         -17.17          8.402         -24.12          71.31          124.7
   0.08995              -16.39          13.91          73.07          61.94        -0.4468          11.03         -17.17          8.416         -24.08          71.29          124.7
   0.09524               -16.4          13.91          73.07          61.94        -0.4467          11.03         -17.17          8.431         -24.05          71.27          124.7
    0.1005              -16.42          13.91          73.07          61.93        -0.4467          11.02         -17.17          8.448         -24.01          71.24          124.6
    0.1058              -16.45          13.92          73.07          61.92        -0.4466          11.02         -17.18          8.466         -23.96          71.21          124.5
    0.1111              -16.47          13.92          73.07          61.91        -0.4466          11.01         -17.18          8.486         -23.92          71.18          124.5
    0.1164               -16.5          13.93          73.07           61.9        -0.4465          11.01         -17.18          8.508         -23.86          71.15          124.4
    0.1217              -16.53          13.93          73.07          61.88        -0.4464           11.0         -17.18          8.533          -23.8          71.11          124.3
     0.127              -16.56          13.94          73.08          61.87        -0.4463           11.0         -17.19           8.56         -23.74          71.07          124.3
    0.1323              -16.59          13.94          73.08          61.85        -0.4462          10.99         -17.19          8.591         -23.66          71.02          124.2
    0.1376              -16.64          13.95          73.08          61.84        -0.4461          10.98         -17.19          8.625         -23.58          70.97          124.0
    0.1429              -16.68          13.96          73.08          61.82         -0.446          10.97          -17.2          8.663         -23.49          70.91          123.9
    0.1481              -16.73          13.97          73.09          61.79        -0.4459          10.97          -17.2          8.707         -23.39          70.84          123.8
    0.1534              -16.79          13.98          73.09          61.77        -0.4457          10.95         -17.21          8.756         -23.27          70.76          123.6
    0.1587              -16.86          13.99          73.09          61.74        -0.4455          10.94         -17.21          8.813         -23.13          70.68          123.5
     0.164              -16.94           14.0           73.1          61.71        -0.4453          10.93         -17.22          8.877         -22.98          70.58          123.3
    0.1693              -17.03          14.02           73.1          61.67        -0.4451          10.91         -17.23          8.952          -22.8          70.46          123.0
    0.1746              -17.13          14.04          73.11          61.62        -0.4448          10.89         -17.24          9.039         -22.59          70.33          122.7
    0.1799              -17.25          14.06          73.12          61.57        -0.4445          10.87         -17.25           9.14         -22.35          70.17          122.4
    0.1852              -17.39          14.09          73.13          61.51        -0.4441          10.84         -17.26           9.26         -22.07          69.98          122.1
    0.1905              -17.56          14.12          73.14          61.44        -0.4437          10.81         -17.27          9.402         -21.73          69.76          121.6
    0.1958              -17.77          14.15          73.15          61.35        -0.4431          10.77         -17.29          9.573         -21.32           69.5          121.1
    0.2011              -18.01           14.2          73.16          61.24        -0.4425          10.72         -17.31          9.779         -20.83          69.18          120.4
    0.2063              -18.31          14.25          73.18          61.11        -0.4417          10.67         -17.34          10.03         -20.22          68.79          119.6
    0.2116              -18.68          14.32           73.2          60.95        -0.4407           10.6         -17.37          10.34         -19.48          68.31          118.7
    0.2169              -19.15           14.4          73.23          60.76        -0.4395          10.51         -17.41          10.73         -18.55          67.71          117.4
    0.2222              -19.73           14.5          73.27          60.51        -0.4379           10.4         -17.46          11.22         -17.39          66.95          115.9
    0.2275              -20.47          14.63          73.31          60.19         -0.436          10.26         -17.53          11.84          -15.9          65.99          114.0
    0.2328              -21.42           14.8          73.37          59.78        -0.4334          10.08         -17.61          12.63          -14.0          64.76          111.5
    0.2381              -22.63          15.02          73.44          59.26        -0.4302          9.851         -17.71          13.65         -11.56          63.18          108.3
    0.2434              -24.19           15.3          73.53          58.59        -0.4261          9.558         -17.85          14.96          -8.45          61.17          104.2
    0.2487              -26.14          15.64          73.65          57.75        -0.4209          9.189         -18.02          16.59         -4.534          58.63          99.02
     0.254              -28.52          16.07          73.79          56.72        -0.4146          8.739         -18.23          18.59         0.2375          55.54          92.75
